<?xml version="1.0" encoding="UTF-8" standalone="no"?>
<!-- Created with Inkscape (http://www.inkscape.org/) -->

<svg
   width="64"
   height="64"
   viewBox="0 0 16.933333 16.933333"
   version="1.1"
   id="svg1"
   inkscape:version="1.3.2 (091e20e, 2023-11-25, custom)"
   sodipodi:docname="dioxy_logo_v0.1.svg"
   xmlns:inkscape="http://www.inkscape.org/namespaces/inkscape"
   xmlns:sodipodi="http://sodipodi.sourceforge.net/DTD/sodipodi-0.dtd"
   xmlns="http://www.w3.org/2000/svg"
   xmlns:svg="http://www.w3.org/2000/svg">
  <sodipodi:namedview
     id="namedview1"
     pagecolor="#505050"
     bordercolor="#eeeeee"
     borderopacity="1"
     inkscape:showpageshadow="0"
     inkscape:pageopacity="0"
     inkscape:pagecheckerboard="0"
     inkscape:deskcolor="#d1d1d1"
     inkscape:document-units="mm"
     inkscape:zoom="10.875377"
     inkscape:cx="38.711302"
     inkscape:cy="35.81485"
     inkscape:window-width="1920"
     inkscape:window-height="1001"
     inkscape:window-x="-9"
     inkscape:window-y="-9"
     inkscape:window-maximized="1"
     inkscape:current-layer="layer1" />
  <defs
     id="defs1" />
  <g
     inkscape:label="Layer 1"
     inkscape:groupmode="layer"
     id="layer1">
    <text
       xml:space="preserve"
       style="font-style:normal;font-weight:normal;font-size:15.356px;line-height:1.25;font-family:sans-serif;letter-spacing:0px;word-spacing:0px;fill:#a1a1aa;fill-opacity:1;stroke:none;stroke-width:0.383896"
       x="6.1318398"
       y="13.62999"
       id="text1"
       transform="scale(0.94956661,1.053112)"><tspan
         sodipodi:role="line"
         id="tspan1"
         style="fill:#a1a1aa;fill-opacity:1;stroke-width:0.383896"
         x="6.1318398"
         y="13.62999">D</tspan></text>
    <text
       xml:space="preserve"
       style="font-style:normal;font-weight:normal;font-size:4.43933px;line-height:1.25;font-family:sans-serif;letter-spacing:0px;word-spacing:0px;fill:#0369a1;fill-opacity:1;stroke:none;stroke-width:0.110984"
       x="2.0317836"
       y="14.891796"
       id="text2"
       transform="scale(1.0626896,0.94100856)"><tspan
         sodipodi:role="line"
         id="tspan2"
         style="fill:#0369a1;fill-opacity:1;stroke-width:0.110984"
         x="2.0317836"
         y="14.891796">Y</tspan></text>
    <text
       xml:space="preserve"
       style="font-style:normal;font-weight:normal;font-size:4.36874px;line-height:1.25;font-family:sans-serif;letter-spacing:0px;word-spacing:0px;fill:#f59e0b;fill-opacity:1;stroke:none;stroke-width:0.109219"
       x="2.0390913"
       y="10.952792"
       id="text2-6"
       transform="scale(1.0543933,0.94841271)"><tspan
         sodipodi:role="line"
         id="tspan2-4"
         style="fill:#f59e0b;fill-opacity:1;stroke-width:0.109219"
         x="2.0390913"
         y="10.952792">X</tspan></text>
  </g>
  <g
     inkscape:label="Rendered Gears"
     transform="matrix(0.51507447,0,0,0.51507447,3.1502299,16.793137)"
     id="g72"
     style="stroke:#a1a1aa;stroke-opacity:1">
    <path
       style="fill:none;stroke:#a1a1aa;stroke-width:0.264583;stroke-opacity:1"
       d="m 3.165636,-23.289656 0.45522,-0.06076 0.04637,-7e-4 0.52415,0.17161 v 0.44826 l -0.52415,0.17161 -0.04637,-7e-4 -0.45522,-0.06076 -0.16838,0.62841 0.42461,0.17499 0.04051,0.02258 0.36812,0.41069 -0.22413,0.38821 -0.53973,-0.11346 -0.03981,-0.02379 -0.36385,-0.28023 -0.46003,0.46003 0.28023,0.36385 0.02379,0.03981 0.11346,0.53973 -0.38821,0.22413 -0.41069,-0.36812 -0.02258,-0.04051 -0.17499,-0.42461 -0.62841003,0.16838 0.06076,0.45522 7e-4,0.04637 -0.17161123,0.52415 h -0.44826 l -0.17161,-0.52415 7e-4,-0.04637 0.06076,-0.45522 -0.62841,-0.16838 -0.17499,0.42461 -0.02258,0.04051 -0.41069,0.36812 -0.38820877,-0.22413 0.11346,-0.53973 0.02379,-0.03981 0.28022877,-0.36385 -0.46002877,-0.46003 -0.36385,0.28023 -0.03981,0.02379 -0.53973,0.11346 -0.22413,-0.38821 0.36812,-0.41069 0.04051,-0.02258 0.42461,-0.17499 -0.16838,-0.62841 -0.45522,0.06076 -0.04637,7e-4 -0.52415,-0.17161 v -0.44826 l 0.52415,-0.17161 0.04637,7e-4 0.45522,0.06076 0.16838,-0.62841 -0.42461,-0.17499 -0.04051,-0.02258 -0.36812,-0.41069 0.22413,-0.38821 0.53973,0.11346 0.03981,0.02379 0.36385,0.28023 0.46002877,-0.46003 -0.28022877,-0.36385 -0.02379,-0.03981 -0.11346,-0.53973 0.38820877,-0.22413 0.41069,0.36812 0.02258,0.04051 0.17499,0.42461 0.62841,-0.16838 -0.06076,-0.45522 -7e-4,-0.04637 0.17161,-0.52415 h 0.44826 l 0.17161123,0.52415 -7e-4,0.04637 -0.06076,0.45522 0.62841003,0.16838 0.17499,-0.42461 0.02258,-0.04051 0.41069,-0.36812 0.38821,0.22413 -0.11346,0.53973 -0.02379,0.03981 -0.28023,0.36385 0.46003,0.46003 0.36385,-0.28023 0.03981,-0.02379 0.53973,-0.11346 0.22413,0.38821 -0.36812,0.41069 -0.04051,0.02258 -0.42461,0.17499 z"
       id="path71" />
    <circle
       style="fill:none;stroke:#a1a1aa;stroke-width:0.264583;stroke-opacity:1"
       id="path72"
       cx="0.66126597"
       cy="-22.955376"
       r="0.66145831" />
  </g>
</svg>
